<svg xmlns="http://www.w3.org/2000/svg" viewBox="0 0 750 500"><g id="freepik--background-simple--inject-50"><path d="M277.16,121.19C376.37,72.34,478.42,8.47,593.67,34.61c35.74,8.1,68.26,28.36,90.24,57.82,58.78,78.77,54,199.41,22.07,288.08a161.7,161.7,0,0,1-16.07,33.13c-32.42,50-87,52.38-139.72,37.92C505.6,439.32,466.1,426.73,420,439.17c-25.51,6.9-50.23,16.37-75.64,23.58-34.61,9.82-70.28,16.49-106.32,17.17C142.75,481.7,33.84,433.07,25.39,326.6a169,169,0,0,1-.33-20.75C27,263.35,41,220.78,80,198.72c39.14-22.19,85.58-31,127.46-46.7C231.22,143.07,254.32,132.44,277.16,121.19Z" style="fill:#7E57C2"></path><path d="M277.16,121.19C376.37,72.34,478.42,8.47,593.67,34.61c35.74,8.1,68.26,28.36,90.24,57.82,58.78,78.77,54,199.41,22.07,288.08a161.7,161.7,0,0,1-16.07,33.13c-32.42,50-87,52.38-139.72,37.92C505.6,439.32,466.1,426.73,420,439.17c-25.51,6.9-50.23,16.37-75.64,23.58-34.61,9.82-70.28,16.49-106.32,17.17C142.75,481.7,33.84,433.07,25.39,326.6a169,169,0,0,1-.33-20.75C27,263.35,41,220.78,80,198.72c39.14-22.19,85.58-31,127.46-46.7C231.22,143.07,254.32,132.44,277.16,121.19Z" style="fill:#fff;opacity:0.7000000000000001"></path></g><g id="freepik--Clouds--inject-50"><path d="M307.54,292s-18.15-19-28.06-19-23.93,14.86-28.06,16.51-15.68-9.08-25.58-6.6-19.81,16.5-22.28,17.33-17.34-5-23.94-1.65-16.39,7.29-16.39,7.29H338.91l-5-10.59s-1.65-11.56-13.2-14S307.54,292,307.54,292Z" style="fill:#fff;stroke:#263238;stroke-linecap:round;stroke-linejoin:round"></path><path d="M175.5,37.84s-18.16-19-28.06-19S123.5,33.71,119.37,35.37s-15.68-9.08-25.58-6.61S74,45.27,71.51,46.09s-17.33-5-23.94-1.65-16.39,7.3-16.39,7.3H206.86l-5-10.6s-1.66-11.55-13.21-14S175.5,37.84,175.5,37.84Z" style="fill:#fff;stroke:#263238;stroke-linecap:round;stroke-linejoin:round"></path><path d="M708.64,105.52s-18.15-19-28.06-19S656.65,101.39,652.52,103s-15.68-9.08-25.58-6.6-19.81,16.5-22.28,17.33-17.34-5-23.94-1.65-16.39,7.29-16.39,7.29H740l-5-10.59s-1.65-11.56-13.2-14S708.64,105.52,708.64,105.52Z" style="fill:#fff;stroke:#263238;stroke-linecap:round;stroke-linejoin:round"></path></g><g id="freepik--Device--inject-50"><path d="M237.77,117.37h0a3.1,3.1,0,0,1-3.11-3.1V94.09a3.1,3.1,0,0,1,3.1-3.11h0a3.11,3.11,0,0,1,3.11,3.11v20.18A3.1,3.1,0,0,1,237.77,117.37Z" style="fill:#263238;stroke:#263238;stroke-linecap:round;stroke-linejoin:round"></path><path d="M237.76,148.93h0a3.1,3.1,0,0,1-3.1-3.1V125.65a3.11,3.11,0,0,1,3.11-3.11h0a3.1,3.1,0,0,1,3.1,3.11v20.18A3.1,3.1,0,0,1,237.76,148.93Z" style="fill:#263238;stroke:#263238;stroke-linecap:round;stroke-linejoin:round"></path><path d="M237.76,192.39h0a3.1,3.1,0,0,1-3.11-3.1V169.11a3.1,3.1,0,0,1,3.1-3.1h0a3.1,3.1,0,0,1,3.1,3.1v20.18A3.1,3.1,0,0,1,237.76,192.39Z" style="fill:#263238;stroke:#263238;stroke-linecap:round;stroke-linejoin:round"></path><path d="M224.74,425.49l-148.27,0A13.48,13.48,0,0,1,63,412L63,75.73A13.47,13.47,0,0,1,76.52,62.26l148.27,0a13.48,13.48,0,0,1,13.47,13.48l0,336.26A13.48,13.48,0,0,1,224.74,425.49Z" style="fill:#263238;stroke:#263238;stroke-linecap:round;stroke-linejoin:round"></path><rect x="76.14" y="86.21" width="148.98" height="315.33" style="fill:#fff;stroke:#263238;stroke-linecap:round;stroke-linejoin:round"></rect><polygon points="225.1 106.05 76.12 106.02 76.16 86.2 225.14 86.22 225.1 106.05" style="fill:#7E57C2;stroke:#263238;stroke-linecap:round;stroke-linejoin:round"></polygon><path d="M210.65,99.52H176.4a4.2,4.2,0,0,1-4.2-4.2h0a4.19,4.19,0,0,1,4.2-4.19h34.25a4.18,4.18,0,0,1,4.19,4.19h0A4.19,4.19,0,0,1,210.65,99.52Z" style="fill:#fff;stroke:#263238;stroke-linecap:round;stroke-linejoin:round"></path><path d="M160.67,99.52h-73a4.19,4.19,0,0,1-4.19-4.2h0a4.18,4.18,0,0,1,4.19-4.19h73a4.18,4.18,0,0,1,4.19,4.19h0A4.19,4.19,0,0,1,160.67,99.52Z" style="fill:#fff;stroke:#263238;stroke-linecap:round;stroke-linejoin:round"></path><rect x="150.25" y="138.27" width="66.62" height="124.31" style="fill:#fff;stroke:#263238;stroke-linecap:round;stroke-linejoin:round"></rect><polygon points="150.25 262.58 170.33 183 186.06 199.08 203.5 160.43 216.16 175.48 216.86 262.58 150.25 262.58" style="fill:#fff;stroke:#263238;stroke-linecap:round;stroke-linejoin:round"></polygon><circle cx="166.73" cy="155.12" r="8.38" transform="translate(-16.22 290.74) rotate(-79.48)" style="fill:#fff;stroke:#263238;stroke-linecap:round;stroke-linejoin:round"></circle><line x1="83.39" y1="127.57" x2="216.46" y2="127.57" style="fill:none;stroke:#263238;stroke-linecap:round;stroke-linejoin:round"></line><path d="M99.37,127.63v-5.26a3.46,3.46,0,0,1,3.39-3.52h20.3a3.45,3.45,0,0,1,3.38,3.52v5" style="fill:none;stroke:#263238;stroke-linecap:round;stroke-linejoin:round"></path><path d="M128.72,127.63v-5.26a3.45,3.45,0,0,1,3.38-3.52h20.3a3.46,3.46,0,0,1,3.39,3.52v5" style="fill:none;stroke:#263238;stroke-linecap:round;stroke-linejoin:round"></path><path d="M158.06,127.63v-5.26a3.46,3.46,0,0,1,3.38-3.52h20.31a3.45,3.45,0,0,1,3.38,3.52v5" style="fill:none;stroke:#263238;stroke-linecap:round;stroke-linejoin:round"></path><path d="M187.41,127.63v-5.26a3.45,3.45,0,0,1,3.38-3.52h20.3a3.46,3.46,0,0,1,3.39,3.52v5" style="fill:none;stroke:#263238;stroke-linecap:round;stroke-linejoin:round"></path><line x1="85.57" y1="140.35" x2="143.13" y2="140.35" style="fill:none;stroke:#263238;stroke-linecap:round;stroke-linejoin:round"></line><line x1="85.57" y1="150.05" x2="143.13" y2="150.05" style="fill:none;stroke:#263238;stroke-linecap:round;stroke-linejoin:round"></line><line x1="85.57" y1="159.75" x2="143.13" y2="159.75" style="fill:none;stroke:#263238;stroke-linecap:round;stroke-linejoin:round"></line><line x1="85.57" y1="169.45" x2="143.13" y2="169.45" style="fill:none;stroke:#263238;stroke-linecap:round;stroke-linejoin:round"></line><line x1="85.57" y1="179.15" x2="143.13" y2="179.15" style="fill:none;stroke:#263238;stroke-linecap:round;stroke-linejoin:round"></line><line x1="85.57" y1="188.85" x2="143.13" y2="188.85" style="fill:none;stroke:#263238;stroke-linecap:round;stroke-linejoin:round"></line><line x1="157.39" y1="277.76" x2="214.95" y2="277.76" style="fill:none;stroke:#263238;stroke-linecap:round;stroke-linejoin:round"></line><line x1="157.39" y1="287.46" x2="214.95" y2="287.46" style="fill:none;stroke:#263238;stroke-linecap:round;stroke-linejoin:round"></line><line x1="157.39" y1="297.16" x2="214.95" y2="297.16" style="fill:none;stroke:#263238;stroke-linecap:round;stroke-linejoin:round"></line><line x1="157.39" y1="306.86" x2="214.95" y2="306.86" style="fill:none;stroke:#263238;stroke-linecap:round;stroke-linejoin:round"></line><line x1="157.39" y1="316.56" x2="214.95" y2="316.56" style="fill:none;stroke:#263238;stroke-linecap:round;stroke-linejoin:round"></line><line x1="157.39" y1="326.26" x2="214.95" y2="326.26" style="fill:none;stroke:#263238;stroke-linecap:round;stroke-linejoin:round"></line><line x1="82.18" y1="277.76" x2="139.74" y2="277.76" style="fill:none;stroke:#263238;stroke-linecap:round;stroke-linejoin:round"></line><line x1="82.18" y1="287.46" x2="139.74" y2="287.46" style="fill:none;stroke:#263238;stroke-linecap:round;stroke-linejoin:round"></line><line x1="82.18" y1="297.16" x2="139.74" y2="297.16" style="fill:none;stroke:#263238;stroke-linecap:round;stroke-linejoin:round"></line><line x1="82.18" y1="306.86" x2="139.74" y2="306.86" style="fill:none;stroke:#263238;stroke-linecap:round;stroke-linejoin:round"></line><line x1="82.18" y1="316.56" x2="139.74" y2="316.56" style="fill:none;stroke:#263238;stroke-linecap:round;stroke-linejoin:round"></line><line x1="82.18" y1="326.26" x2="139.74" y2="326.26" style="fill:none;stroke:#263238;stroke-linecap:round;stroke-linejoin:round"></line></g><g id="freepik--Floor--inject-50"><line x1="13.58" y1="425.17" x2="732.92" y2="425.17" style="fill:none;stroke:#263238;stroke-linecap:round;stroke-linejoin:round"></line></g><g id="freepik--Target--inject-50"><circle cx="512.39" cy="84.67" r="45.29" transform="translate(232.94 522.41) rotate(-66.83)" style="fill:#263238;stroke:#263238;stroke-linecap:round;stroke-linejoin:round"></circle><circle cx="512.39" cy="84.67" r="36.27" transform="translate(90.21 387.11) rotate(-45)" style="fill:#fff;stroke:#263238;stroke-linecap:round;stroke-linejoin:round"></circle><circle cx="512.39" cy="84.67" r="23.22" transform="translate(90.21 387.11) rotate(-45)" style="fill:#263238;stroke:#263238;stroke-linecap:round;stroke-linejoin:round"></circle><circle cx="512.39" cy="84.67" r="13.12" transform="translate(90.21 387.11) rotate(-45)" style="fill:#fff;stroke:#1a004f;stroke-miterlimit:10"></circle><path d="M511.29,85.77H450.38v-2.2h60.91a1.1,1.1,0,0,1,1.1,1.1h0A1.1,1.1,0,0,1,511.29,85.77Z" style="fill:#263238"></path><polygon points="444.96 76.86 445.3 77.25 451.67 83.56 432.62 83.56 425.81 76.86 444.96 76.86" style="fill:#263238;stroke:#263238;stroke-linecap:round;stroke-linejoin:round"></polygon><path d="M425.81,92.22l6.81-6.47h19.05a40.91,40.91,0,0,0-6.76,6.47Z" style="fill:#263238;stroke:#263238;stroke-linecap:round;stroke-linejoin:round"></path></g><g id="freepik--Plants--inject-50"><path d="M16.39,392.61a14.2,14.2,0,0,0,4.16.14s-.77-1.87-.84-2c-.74-1.29-2.94-3.35-4.57-3a2,2,0,0,0-1.4,2.59A4.13,4.13,0,0,0,16.39,392.61Z" style="fill:#263238"></path><path d="M54,379.76c-1.67-.05-3.47,2.37-4,3.77,0,.12-.51,2.1-.48,2.1h0c-.29.38-.59.79-.91,1.25-.59.84-1.25,1.8-1.89,2.9a33.82,33.82,0,0,0-1.91,3.62,25,25,0,0,0-1.54,4.32.11.11,0,0,0,0,.05c0-.49-.16-1.85-.18-1.95-.3-1.46-1.74-4.11-3.41-4.29a2,2,0,0,0-2.13,2,4.09,4.09,0,0,0,1.82,3,13.61,13.61,0,0,0,3.86,1.43,34.1,34.1,0,0,0-.75,4.61c-.1.9-.16,1.81-.21,2.73,0-.42-.08-.8-.09-.85-.3-1.46-1.75-4.11-3.41-4.29a2,2,0,0,0-2.13,2,4.12,4.12,0,0,0,1.82,3,13.19,13.19,0,0,0,3.74,1.39c0,.35,0,.71-.05,1.06-.07,1.68-.14,3.37-.25,5,0,.58-.1,1.15-.16,1.72,0-.37-.07-.69-.08-.74-.3-1.46-1.75-4.1-3.41-4.28a2,2,0,0,0-2.13,2,4.14,4.14,0,0,0,1.81,3,12.51,12.51,0,0,0,3.65,1.37c-.08.59-.16,1.17-.26,1.73-.08.38-.13.76-.23,1.14l-.27,1.12c-.2.71-.4,1.44-.61,2.12-.14.48-.29.93-.43,1.39.05-.58.11-1.72.11-1.81a7.73,7.73,0,0,0-1.31-3.65,3.18,3.18,0,0,0-.06-.43A2,2,0,0,0,36,415.79c-1.57.55-2.38,3.45-2.35,4.94,0,.09.14,1,.23,1.64-.11-.34-.21-.68-.33-1-.22-.7-.46-1.39-.72-2.14l-.42-1.07c-.13-.36-.31-.73-.47-1.1-.38-.85-.81-1.68-1.27-2.52a13.12,13.12,0,0,0,3.61-1.67,4.16,4.16,0,0,0,1.59-3.1,2,2,0,0,0-2.28-1.86c-1.65.31-2.89,3.06-3.08,4.54,0,.09,0,1.17,0,1.76-.28-.5-.55-1-.85-1.5-.85-1.44-1.76-2.86-2.66-4.29l-.81-1.31a13.93,13.93,0,0,0,3.74-1.72,4.11,4.11,0,0,0,1.58-3.09,2,2,0,0,0-2.28-1.86c-1.64.31-2.88,3-3.07,4.53,0,.11,0,1.66,0,2.06-.6-1-1.19-1.93-1.73-2.91A36,36,0,0,1,22.44,400a13.86,13.86,0,0,0,3.77-1.72,4.11,4.11,0,0,0,1.58-3.09,2,2,0,0,0-2.28-1.86c-1.64.3-2.88,3.05-3.07,4.53,0,.12,0,1.78,0,2.09a2.72,2.72,0,0,1-.11-.25,25.38,25.38,0,0,1-1.18-4.37c-.15-.82-.25-1.61-.34-2.38a13.73,13.73,0,0,0,3.84-1.28,4.17,4.17,0,0,0,1.92-2.91,2,2,0,0,0-2.07-2.09c-1.66.12-3.2,2.71-3.55,4.16,0,.08-.12.91-.19,1.51,0-.35-.07-.71-.1-1.05-.09-1.26-.1-2.42-.1-3.45,0-.58,0-1.11.05-1.6a13.38,13.38,0,0,0,2.8-2.89,4.18,4.18,0,0,0,.36-3.46A2,2,0,0,0,21,379c-1.42.88-1.59,3.89-1.23,5.33,0,.13.74,2,.76,2l0,0c0,.48-.06,1-.07,1.54,0,1-.05,2.19,0,3.46a36.7,36.7,0,0,0,.4,4.08,26.49,26.49,0,0,0,1.1,4.45s0,0,0,.05c-.29-.39-1.15-1.46-1.22-1.53-1.06-1.06-3.72-2.47-5.21-1.7a2,2,0,0,0-.66,2.87A4.13,4.13,0,0,0,18,401a13.92,13.92,0,0,0,4-.94A34.81,34.81,0,0,0,24,404.32c.42.8.87,1.6,1.34,2.39l-.55-.66c-1.05-1.05-3.72-2.46-5.2-1.7a2,2,0,0,0-.66,2.87A4.09,4.09,0,0,0,22,408.69a13.12,13.12,0,0,0,3.9-.9l.53.91c.87,1.45,1.75,2.89,2.56,4.33.29.5.55,1,.82,1.52l-.47-.57c-1.06-1.05-3.72-2.46-5.21-1.69a2,2,0,0,0-.66,2.86,4.14,4.14,0,0,0,3.15,1.48,12.59,12.59,0,0,0,3.79-.87c.26.53.52,1.06.74,1.59.15.36.31.7.44,1.07L32,419.5c.23.7.46,1.42.66,2.11.15.48.28.93.41,1.39-.28-.5-.85-1.49-.91-1.57-.88-1.19-3.3-3-4.89-2.46a2,2,0,0,0-1.08,2.73,4.12,4.12,0,0,0,2.89,1.94,13.81,13.81,0,0,0,4.08-.32c.21.76.41,1.5.59,2.21l.08.31h1c-.05-.19-.1-.37-.15-.57-.22-.77-.46-1.6-.72-2.44a21.09,21.09,0,0,0,2.2-1.24,14.58,14.58,0,0,0,3.48,1.89c-.24.75-.48,1.48-.72,2.17a1.07,1.07,0,0,0-.07.19h1c.24-.73.48-1.51.71-2.31a13.68,13.68,0,0,0,4.1,0,4.17,4.17,0,0,0,2.74-2.15,2,2,0,0,0-1.3-2.64c-1.62-.41-3.89,1.57-4.69,2.83,0,.07-.46.94-.71,1.49.1-.35.2-.68.3-1,.2-.71.38-1.42.57-2.18.08-.37.16-.75.25-1.13s.14-.78.21-1.17c.14-.92.25-1.86.33-2.8a13.23,13.23,0,0,0,3.93.59,4.09,4.09,0,0,0,3-1.71,2,2,0,0,0-.87-2.8c-1.54-.66-4.09.95-5.07,2.08-.06.07-.67,1-1,1.45q.08-.84.12-1.71c.08-1.67.11-3.36.15-5,0-.52,0-1,0-1.55a13.94,13.94,0,0,0,4.07.64,4.19,4.19,0,0,0,3-1.71,2,2,0,0,0-.88-2.81c-1.54-.65-4.09,1-5.06,2.08-.08.09-1,1.37-1.16,1.71,0-1.14.08-2.27.17-3.38a35.37,35.37,0,0,1,.63-4.47,13.83,13.83,0,0,0,4.09.64,4.12,4.12,0,0,0,3-1.71,2,2,0,0,0-.88-2.81c-1.54-.65-4.09,1-5.06,2.09-.08.09-1,1.46-1.17,1.73,0-.09,0-.18,0-.26a24.93,24.93,0,0,1,1.43-4.3c.32-.77.67-1.49,1-2.18A13.3,13.3,0,0,0,50,392.37,4.13,4.13,0,0,0,53.21,391a2,2,0,0,0-.56-2.89c-1.46-.82-4.17.5-5.26,1.52-.06.05-.6.68-1,1.14.17-.31.33-.63.5-.92.61-1.1,1.25-2.07,1.82-2.93.32-.48.63-.91.92-1.32a13.16,13.16,0,0,0,3.93-.86,4.15,4.15,0,0,0,2.21-2.69A2,2,0,0,0,54,379.76Z" style="fill:#263238"></path><path d="M46,391s.38-2,.39-2.12c.1-1.48-.6-4.42-2.15-5a2,2,0,0,0-2.6,1.39,4.17,4.17,0,0,0,1,3.34A14.25,14.25,0,0,0,46,391Z" style="fill:#263238"></path><path d="M269.41,360.38c2.18.95,7.5.83,7.51.83s-1.15-3.49-1.25-3.7c-1.17-2.45-4.87-6.49-7.87-6.08a3.59,3.59,0,0,0-2.89,4.5C265.41,358,267.55,359.57,269.41,360.38Z" style="fill:#263238"></path><path d="M271.25,375.81c2.26.33,7-1.05,7.39-1.16a64.86,64.86,0,0,0,2.88,8q1,2.26,2.09,4.52c-.43-.64-.83-1.2-.89-1.28-1.77-2.05-6.41-5-9.2-3.78a3.6,3.6,0,0,0-1.59,5.11c1,1.87,3.5,2.8,5.5,3.09s6.12-.79,7.19-1.1c.29.58.56,1.15.85,1.72,1.38,2.74,2.76,5.47,4,8.19.45,1,.86,1.92,1.27,2.88-.38-.56-.71-1-.77-1.1-1.77-2.05-6.41-5-9.2-3.78a3.59,3.59,0,0,0-1.59,5.1c1,1.88,3.5,2.81,5.5,3.1s5.72-.7,7-1.05c.39,1,.78,2,1.12,3,.21.68.47,1.31.64,2s.38,1.36.57,2c.31,1.3.64,2.64.91,3.91.19.88.36,1.73.54,2.58-.44-1-1.33-2.82-1.43-3-1.44-2.3-5.58-5.88-8.52-5.14a3.6,3.6,0,0,0-2.34,4.81c.73,2,3,3.3,5,3.89,2.13.66,6.85.06,7.44,0,.28,1.41.54,2.79.77,4.09.17,1,.33,1.89.47,2.77h1.89c-.18-1-.38-2-.59-3.1-.28-1.44-.61-3-1-4.52a41,41,0,0,0,4.16-2c1.55,1.69,5.53,3.65,6,3.91-.55,1.33-1.09,2.62-1.61,3.83-.28.64-.55,1.24-.82,1.84h2c.15-.38.31-.75.47-1.14.56-1.35,1.13-2.81,1.69-4.31.57.12,5.25,1.07,7.42.58,2-.45,4.37-1.56,5.25-3.52a3.58,3.58,0,0,0-2-5c-2.88-1-7.27,2.3-8.88,4.48-.09.13-1,1.64-1.5,2.61.23-.62.46-1.21.68-1.85.46-1.25.89-2.51,1.34-3.87q.3-1,.6-2c.22-.66.36-1.39.54-2.1.4-1.64.71-3.33,1-5,1.1.4,5,1.76,7.05,1.62s4.55-.88,5.72-2.68a3.59,3.59,0,0,0-1.21-5.21c-2.7-1.39-7.53,1.18-9.45,3.09-.12.12-1.35,1.64-2,2.49.16-1,.32-2,.45-3.09.37-3,.66-6.06,1-9.11.09-.94.19-1.87.29-2.8.39.15,5,1.87,7.28,1.71,2-.14,4.55-.89,5.72-2.68a3.59,3.59,0,0,0-1.21-5.21c-2.69-1.39-7.53,1.17-9.45,3.09-.15.14-1.91,2.34-2.33,2.92.22-2.05.46-4.09.77-6.09a62.9,62.9,0,0,1,1.75-8c.18.07,5,1.89,7.32,1.72,2-.14,4.55-.88,5.72-2.68a3.58,3.58,0,0,0-1.2-5.2c-2.7-1.4-7.54,1.17-9.46,3.08-.15.15-2,2.52-2.35,3,0-.15.07-.31.12-.46a46.08,46.08,0,0,1,3.17-7.59c.69-1.35,1.43-2.6,2.17-3.81.86.43,4.83,2.36,6.94,2.44s4.62-.38,6-2a3.6,3.6,0,0,0-.63-5.31c-2.53-1.68-7.62.34-9.74,2-.11.09-1.18,1.15-2,1.94.35-.54.69-1.1,1-1.61,1.27-1.91,2.55-3.58,3.7-5.06.65-.83,1.27-1.57,1.85-2.25,1.06,0,5.36-.15,7.24-1s3.92-2.47,4.37-4.57a3.59,3.59,0,0,0-3-4.42c-3-.33-6.6,3.81-7.7,6.29-.1.21-1.21,3.73-1.15,3.73h.06c-.57.65-1.17,1.35-1.82,2.13-1.18,1.45-2.5,3.1-3.81,5a63.08,63.08,0,0,0-4,6.31,46,46,0,0,0-3.38,7.61l0,.1c0-.89,0-3.38-.05-3.57-.35-2.69-2.6-7.68-5.59-8.23a3.59,3.59,0,0,0-4.14,3.38c-.17,2.13,1.37,4.27,2.88,5.62,1.71,1.52,6.43,3,6.81,3.11a64.54,64.54,0,0,0-2,8.25c-.29,1.62-.53,3.26-.75,4.92,0-.77,0-1.46,0-1.56-.35-2.69-2.6-7.67-5.59-8.23a3.6,3.6,0,0,0-4.14,3.38c-.17,2.14,1.38,4.28,2.88,5.62s5.54,2.71,6.61,3.05c-.08.63-.17,1.27-.24,1.9-.37,3-.72,6.09-1.15,9.06-.15,1-.34,2.08-.53,3.1,0-.68,0-1.25,0-1.34-.34-2.69-2.6-7.68-5.58-8.23A3.6,3.6,0,0,0,302.6,397c-.17,2.13,1.38,4.27,2.89,5.62s5.15,2.57,6.41,3c-.22,1.05-.44,2.1-.7,3.1-.2.68-.34,1.35-.57,2s-.43,1.33-.65,2c-.45,1.26-.91,2.55-1.39,3.76-.32.85-.65,1.65-1,2.45.16-1,.44-3.08.44-3.26a14,14,0,0,0-1.87-6.78,4.3,4.3,0,0,0-.05-.8,3.58,3.58,0,0,0-4.39-3c-2.93.78-4.79,5.93-4.93,8.63,0,.16.09,1.91.18,3-.15-.63-.29-1.26-.45-1.91-.3-1.3-.65-2.58-1-4-.2-.66-.41-1.33-.61-2s-.48-1.36-.71-2.05c-.58-1.58-1.25-3.16-2-4.74,1.13-.27,5.15-1.29,6.77-2.53s3.31-3.25,3.29-5.39a3.6,3.6,0,0,0-3.88-3.68c-3,.32-5.64,5.13-6.18,7.79,0,.16-.22,2.11-.3,3.18-.43-.94-.85-1.88-1.32-2.83-1.35-2.71-2.8-5.42-4.23-8.13-.44-.83-.87-1.66-1.3-2.49.4-.09,5.21-1.2,7-2.59,1.61-1.23,3.31-3.25,3.3-5.39a3.6,3.6,0,0,0-3.88-3.68c-3,.33-5.64,5.13-6.19,7.79,0,.2-.29,3-.32,3.72-1-1.83-1.88-3.66-2.73-5.51a64.38,64.38,0,0,1-3-7.65c.19,0,5.21-1.18,7.06-2.6,1.6-1.23,3.31-3.25,3.29-5.39a3.59,3.59,0,0,0-3.88-3.68c-3,.33-5.63,5.14-6.18,7.79,0,.21-.32,3.23-.33,3.78,0-.15-.11-.31-.15-.46a46.43,46.43,0,0,1-1.54-8.08c-.17-1.5-.24-3-.29-4.37,1-.11,5.32-.7,7.13-1.79s3.65-2.87,3.87-5a3.6,3.6,0,0,0-3.46-4.08c-3,0-6.16,4.49-7,7.06,0,.15-.35,1.62-.55,2.7,0-.64,0-1.3,0-1.91,0-2.29.14-4.39.29-6.25.09-1.06.19-2,.3-2.91.88-.6,4.39-3.08,5.47-4.85s1.91-4.23,1.12-6.22a3.59,3.59,0,0,0-4.94-2c-2.7,1.39-3.41,6.82-3,9.5,0,.23,1.06,3.77,1.1,3.74l.06,0c-.12.86-.24,1.78-.35,2.79-.18,1.86-.37,4-.43,6.27a63.27,63.27,0,0,0,.18,7.44,46.63,46.63,0,0,0,1.38,8.21l0,.1c-.48-.75-1.88-2.8-2-2.95-1.77-2.05-6.4-5-9.2-3.78a3.59,3.59,0,0,0-1.59,5.1C266.77,374.59,269.24,375.52,271.25,375.81Z" style="fill:#263238"></path><path d="M323.3,361.55c.05,0,1-3.54,1-3.77.37-2.69-.48-8.1-3.21-9.42a3.6,3.6,0,0,0-4.89,2.17c-.74,2,.19,4.48,1.29,6.18C318.79,358.71,323.3,361.55,323.3,361.55Z" style="fill:#263238"></path></g><g id="freepik--paper-planes--inject-50"><polyline points="624.5 162.33 624.08 163.47 619.01 173.99 670.03 165.19" style="fill:#fff;stroke:#263238;stroke-linecap:round;stroke-linejoin:round"></polyline><polygon points="629.34 173.55 624.5 162.33 670.03 165.19 629.34 173.55" style="fill:#fff;stroke:#263238;stroke-linecap:round;stroke-linejoin:round"></polygon><polygon points="670.03 165.19 635.94 142.75 628.33 158.42 670.03 165.19" style="fill:#fff;stroke:#263238;stroke-linecap:round;stroke-linejoin:round"></polygon><polygon points="670.03 165.19 629.34 173.55 628.33 158.42 670.03 165.19" style="fill:#fff;stroke:#263238;stroke-linecap:round;stroke-linejoin:round"></polygon><path d="M270.1,198.12s.35.39,1,1.08" style="fill:none;stroke:#263238;stroke-linecap:round;stroke-linejoin:round"></path><path d="M273.29,201.27c13.07,12.06,65.24,51.9,134.74-3.81,80.63-64.64-14.66-138.6-66-128.61s-42.64,90.62,38,106c79.76,15.16,143.87-26.41,235.56-15.69" style="fill:none;stroke:#263238;stroke-linecap:round;stroke-linejoin:round;stroke-dasharray:2.9891300201416016,2.9891300201416016"></path><path d="M617.11,159.29l1.48.18" style="fill:none;stroke:#263238;stroke-linecap:round;stroke-linejoin:round"></path><polygon points="501.97 313.52 488.48 296.61 517.26 273.27 501.97 313.52" style="fill:#fff;stroke:#263238;stroke-linecap:round;stroke-linejoin:round"></polygon><polygon points="488.48 296.61 486.39 290.29 517.26 273.27 488.48 296.61" style="fill:#fff;stroke:#263238;stroke-linecap:round;stroke-linejoin:round"></polygon><polygon points="517.26 273.27 485.57 292.14 472.55 274.98 517.26 273.27" style="fill:#fff;stroke:#263238;stroke-linecap:round;stroke-linejoin:round"></polygon><path d="M262.83,175.27s44.13,16.86,64,77.35,70.75,96.15,160.31,40.81" style="fill:none;stroke:#263238;stroke-linecap:round;stroke-linejoin:round;stroke-dasharray:3"></path></g><g id="freepik--Hand--inject-50"><path d="M133.85,249s4.5,14.76,4.5,16.27c0,1.28-2.94,12.69-3,17" style="fill:#fff;stroke:#263238;stroke-linecap:round;stroke-linejoin:round"></path><path d="M88,206.06l3.38,31.51a10.68,10.68,0,0,0,12.75,9.32c22.41-4.6,72.45-14,103.07-13.54,40.38.65,76.89,21.05,76.89,21.05L283.72,236a321,321,0,0,0-12.93-83.85l-5.29-18S237.22,165.49,196,178.58c-31,9.86-77.22,14.17-98.15,15.7A10.66,10.66,0,0,0,88,206.06Z" style="fill:#7E57C2;stroke:#263238;stroke-linecap:round;stroke-linejoin:round"></path><path d="M265.77,138.44l-.27-.93S237.22,168.86,196,182c-2.22.71-4.53,1.38-6.9,2" style="fill:none;stroke:#fff;stroke-linecap:round;stroke-linejoin:round;stroke-width:5px"></path><path d="M179.75,186.35c-7,1.63-14.35,3.06-21.71,4.3" style="fill:none;stroke:#fff;stroke-linecap:round;stroke-linejoin:round;stroke-width:5px"></path><path d="M284.75,260.51a4.58,4.58,0,0,1-.53,0,6.14,6.14,0,0,1-6.27-6l-.38-18.37A314.74,314.74,0,0,0,264.9,153.9l-5.3-18a6.15,6.15,0,1,1,11.8-3.46l5.29,18a327.22,327.22,0,0,1,13.17,85.46l.37,18.37A6.14,6.14,0,0,1,284.75,260.51Z" style="fill:#263238;stroke:#263238;stroke-linecap:round;stroke-linejoin:round"></path><path d="M160.88,186.78c-24.27,4.25-49.19,6.49-63,7.5A10.66,10.66,0,0,0,88,206.06l3.38,31.51a10.68,10.68,0,0,0,12.75,9.32c13.85-2.84,38.24-7.53,62.08-10.58Z" style="fill:#263238;stroke:#263238;stroke-linecap:round;stroke-linejoin:round"></path><path d="M119.79,238.41s9.81,19.94,11.34,21.77a5.92,5.92,0,0,0,2.76,1.53,12.31,12.31,0,0,1,6.59,5c7,10.61,24.91,37.72,25.82,38.69,1.13,1.21,3.91,2.25,5.45,1.08s13-12.39,12.13-17.29-2.36-3.41-4.92-5.47c-2.05-1.66-10-15.85-13-21.32a4,4,0,0,1,.16-4.18l2.67-4.06s-11.67-9.4-11.85-11,4.69-2.84,4.85-4.52-4.15-7.55-4.15-7.55Z" style="fill:#7E57C2;stroke:#263238;stroke-linecap:round;stroke-linejoin:round"></path><path d="M161.52,248l8.56,3.15a.54.54,0,0,1,.25.82l-1.54,2.16Z" style="fill:#263238;stroke:#263238;stroke-linecap:round;stroke-linejoin:round"></path><line x1="140.23" y1="256.01" x2="137.76" y2="257.92" style="fill:none;stroke:#263238;stroke-linecap:round;stroke-linejoin:round"></line><line x1="156.94" y1="243.08" x2="142.36" y2="254.36" style="fill:none;stroke:#263238;stroke-linecap:round;stroke-linejoin:round"></line><rect x="129.6" y="209.67" width="9.54" height="6.07" transform="translate(-21.96 15.58) rotate(-6.13)" style="fill:#7E57C2;stroke:#263238;stroke-linecap:round;stroke-linejoin:round"></rect><path d="M135.36,282.24a2.81,2.81,0,0,0,.24,1.49c1.25,1.75,4.25,14,4.5,15.27a42.49,42.49,0,0,1-.75,10.25c-.75,4-3.75,14.27-3.75,14.27l30.53,9.76s7.25-14.52,9-17.52,7-10.76,8.26-16a69.17,69.17,0,0,0,1.5-11.26s4-3.26,3.51-5.51a13.43,13.43,0,0,0-2.76-4.75s.5-4.26-1-6.51-3.75-4.5-4.25-5.25.75-7.76-2.25-9.26a17.36,17.36,0,0,0-5-1.75s.5-4.26-2.75-6.51-7.26-2.5-10.26.25-16.26,17.27-16.26,17.27" style="fill:#fff;stroke:#263238;stroke-linecap:round;stroke-linejoin:round"></path><path d="M144.36,270.22s.75,3.75,1.5,4.5-1.5,11.26-1.5,11.26" style="fill:#fff;stroke:#263238;stroke-linecap:round;stroke-linejoin:round"></path><polyline points="173.13 255.46 167.63 258.71 161.87 265.72" style="fill:#fff;stroke:#263238;stroke-linecap:round;stroke-linejoin:round"></polyline><line x1="180.39" y1="266.47" x2="173.63" y2="271.97" style="fill:#fff;stroke:#263238;stroke-linecap:round;stroke-linejoin:round"></line><line x1="185.64" y1="278.23" x2="179.89" y2="281.73" style="fill:#fff;stroke:#263238;stroke-linecap:round;stroke-linejoin:round"></line><path d="M156.12,273.22a6.4,6.4,0,0,0,0,4.76l1,2.75" style="fill:#fff;stroke:#263238;stroke-linecap:round;stroke-linejoin:round"></path><path d="M169.38,278.73s-2.75,2-1.75,4.25" style="fill:#fff;stroke:#263238;stroke-linecap:round;stroke-linejoin:round"></path><polygon points="134.22 313.64 175.03 328.32 168.94 347.29 128.13 328.68 134.22 313.64" style="fill:#fff;stroke:#263238;stroke-linecap:round;stroke-linejoin:round"></polygon><polygon points="128.85 324.77 174.96 342.76 162.55 398.55 101.95 398.55 128.85 324.77" style="fill:#263238;stroke:#263238;stroke-linecap:round;stroke-linejoin:round"></polygon></g><g id="freepik--speech-bubbles-2--inject-50"><path d="M618.41,191.91c-13.19,0-23.89,8.3-23.89,18.55a15.34,15.34,0,0,0,3,9l-8,13.35,12.76-8.67a27.89,27.89,0,0,0,16.17,4.9c13.2,0,23.9-8.31,23.9-18.55S631.61,191.91,618.41,191.91Z" style="fill:#fff;stroke:#263238;stroke-linecap:round;stroke-linejoin:round"></path><path d="M613.56,210.09a2.49,2.49,0,1,1-2.49-2.48A2.48,2.48,0,0,1,613.56,210.09Z" style="fill:#263238"></path><path d="M620.27,210.09a2.49,2.49,0,1,1-2.49-2.48A2.48,2.48,0,0,1,620.27,210.09Z" style="fill:#263238"></path><path d="M627,210.09a2.49,2.49,0,1,1-2.49-2.48A2.48,2.48,0,0,1,627,210.09Z" style="fill:#263238"></path><path d="M692,238.13c0-10.25-10.7-18.55-23.9-18.55s-23.9,8.3-23.9,18.55c0,8.86,8,16.26,18.69,18.11l1.43,8.62,6.46-8.3C682.71,255.53,692,247.67,692,238.13Z" style="fill:#fff;stroke:#263238;stroke-linecap:round;stroke-linejoin:round"></path><path d="M663.76,238.06a2.49,2.49,0,1,1-2.49-2.49A2.48,2.48,0,0,1,663.76,238.06Z" style="fill:#263238"></path><circle cx="667.98" cy="238.06" r="2.48" style="fill:#263238"></circle><path d="M677.18,238.06a2.49,2.49,0,1,1-2.49-2.49A2.48,2.48,0,0,1,677.18,238.06Z" style="fill:#263238"></path></g><g id="freepik--speech-bubble-1--inject-50"><path d="M491.48,200.78a19.37,19.37,0,0,0-13.19,33.58l-3.75,8.11,7.25-5.51a19.39,19.39,0,1,0,9.69-36.18Z" style="fill:#fff;stroke:#263238;stroke-linecap:round;stroke-linejoin:round"></path><path d="M501.14,212.81a5.47,5.47,0,0,0-7.74,0l-2.09,2.09-2.09-2.09a5.47,5.47,0,0,0-7.73,7.73l9.79,9.79,0,0,0,0,9.79-9.79A5.47,5.47,0,0,0,501.14,212.81Z" style="fill:#7E57C2;stroke:#263238;stroke-linecap:round;stroke-linejoin:round"></path></g></svg>
